<svg xmlns="http://www.w3.org/2000/svg" enable-background="new 0 0 500 500" viewBox="0 0 500 500"><path fill="#22c55e" d="M61.687,354.415V215.55V172.32v-13.047c0-4.804,3.894-8.698,8.698-8.698h359.23
		c4.804,0,8.698,3.894,8.698,8.698v188.939" class="coloraab1ba svgShape"/><path fill="#ecf7f0" d="M250,150.226L250,150.226L250,150.226c-24.433-18.22-54.096-28.062-84.575-28.062H85.009v206.685h80.417
		c30.478,0,60.142,9.842,84.574,28.062l0,0l0,0c24.433-18.22,54.096-28.062,84.574-28.062h80.417V122.163h-80.417
		C304.096,122.163,274.433,132.006,250,150.226z" class="colorecf4f7 svgShape"/><polyline fill="#83e5a7" points="388.572 122.163 388.572 188.828 368.695 171.495 348.819 188.828 348.819 122.163" class="color83e1e5 svgShape"/><circle cx="250" cy="253.396" r="61.178" fill="#7ffdad" class="colorfddf7f svgShape"/><path fill="#ecf7f0" d="M388.572 17.376v47.182c0 6.835-5.541 12.376-12.376 12.376h-65.17c-3.282 0-6.43 1.304-8.751 3.625l-24.22 24.22V76.933 17.376C278.055 10.541 283.595 5 290.43 5h85.766C383.031 5 388.572 10.541 388.572 17.376zM111.428 17.376v47.182c0 6.835 5.541 12.376 12.376 12.376h65.17c3.282 0 6.43 1.304 8.751 3.625l24.22 24.22V76.933 17.376C221.946 10.541 216.405 5 209.57 5h-85.766C116.969 5 111.428 10.541 111.428 17.376z" class="colorecf4f7 svgShape"/><path fill="#7ffdad" d="M329.197,495V373.736c0-6.865,5.565-12.43,12.43-12.43h25.462c9.703,0,19.009-3.854,25.87-10.715
		l55.888-55.888c4.18-4.18,6.529-9.85,6.529-15.762v0c0-12.017-14.319-18.264-23.128-10.091l-31.616,29.336
		c-11.778,10.553-27.035,16.389-42.85,16.389H250.292c0,0-0.292,0-0.292,0h-0.292H142.218c-15.814,0-31.072-5.836-42.85-16.389
		L67.752,268.85c-8.809-8.174-23.128-1.926-23.128,10.091v0c0,5.912,2.348,11.582,6.529,15.762l55.888,55.888
		c6.861,6.861,16.167,10.715,25.87,10.715h25.462c6.865,0,12.43,5.565,12.43,12.43V495" class="colorfddf7f svgShape"/><path fill="#1c211e" d="M56.687,199.701v-7.483c0-2.762,2.239-5,5-5s5,2.238,5,5v7.483c0,2.762-2.239,5-5,5
	S56.687,202.463,56.687,199.701z M273.055,104.778V17.376C273.055,7.795,280.849,0,290.43,0h85.766
	c9.581,0,17.375,7.795,17.375,17.376v47.182c0,9.581-7.794,17.376-17.375,17.376h-65.17c-1.97,0-3.823,0.767-5.216,2.16
	l-24.22,24.22c-0.957,0.957-2.235,1.465-3.537,1.465c-0.644,0-1.294-0.124-1.913-0.381
	C274.273,108.624,273.055,106.801,273.055,104.778z M283.055,92.707l15.685-15.685c3.282-3.282,7.646-5.089,12.287-5.089h65.17
	c4.067,0,7.375-3.309,7.375-7.376V17.376c0-4.067-3.309-7.376-7.375-7.376H290.43c-4.067,0-7.375,3.309-7.375,7.376V92.707z
	 M354.448,48.109h2.772c2.761,0,5-2.238,5-5s-2.239-5-5-5h-2.772c-2.761,0-5,2.238-5,5S351.687,48.109,354.448,48.109z
	 M331.928,48.109h2.771c2.761,0,5-2.238,5-5s-2.239-5-5-5h-2.771c-2.761,0-5,2.238-5,5S329.167,48.109,331.928,48.109z
	 M309.407,48.109h2.771c2.761,0,5-2.238,5-5s-2.239-5-5-5h-2.771c-2.761,0-5,2.238-5,5S306.646,48.109,309.407,48.109z
	 M106.428,64.558V17.376C106.428,7.795,114.223,0,123.804,0h85.766c9.581,0,17.376,7.795,17.376,17.376v87.402
	c0,2.022-1.218,3.846-3.086,4.619c-0.619,0.257-1.269,0.381-1.913,0.381c-1.301,0-2.58-0.508-3.537-1.465l-24.221-24.221
	c-1.393-1.393-3.245-2.159-5.215-2.159h-65.17C114.223,81.934,106.428,74.139,106.428,64.558z M116.428,64.558
	c0,4.067,3.309,7.376,7.375,7.376h65.17c4.641,0,9.004,1.807,12.286,5.088l15.686,15.686V17.376c0-4.067-3.309-7.376-7.376-7.376
	h-85.766c-4.067,0-7.375,3.309-7.375,7.376V64.558z M142.781,48.109h2.771c2.761,0,5-2.238,5-5s-2.239-5-5-5h-2.771
	c-2.761,0-5,2.238-5,5S140.02,48.109,142.781,48.109z M165.301,48.109h2.771c2.761,0,5-2.238,5-5s-2.239-5-5-5h-2.771
	c-2.761,0-5,2.238-5,5S162.54,48.109,165.301,48.109z M187.822,48.109h2.771c2.761,0,5-2.238,5-5s-2.239-5-5-5h-2.771
	c-2.761,0-5,2.238-5,5S185.061,48.109,187.822,48.109z M452.383,298.237l-9.07,9.07v40.906c0,2.762-2.239,5-5,5s-5-2.238-5-5
	v-30.906l-36.818,36.818c-7.854,7.854-18.297,12.181-29.405,12.181h-25.462c-4.097,0-7.43,3.333-7.43,7.43V495c0,2.762-2.239,5-5,5
	s-5-2.238-5-5V373.735c0-9.61,7.819-17.43,17.43-17.43h25.462c8.437,0,16.369-3.285,22.334-9.251l55.888-55.888
	c3.266-3.267,5.064-7.608,5.064-12.227c0-3.594-1.966-6.598-5.26-8.034c-3.294-1.439-6.833-0.836-9.467,1.608l-31.616,29.336
	c-12.777,11.45-29.18,17.724-46.25,17.724H142.218c-17.07,0-33.473-6.273-46.186-17.665l-31.68-29.395
	c-2.634-2.444-6.173-3.047-9.467-1.608c-3.294,1.437-5.26,4.44-5.26,8.034c0,4.618,1.798,8.96,5.064,12.227l55.888,55.888
	c5.965,5.966,13.897,9.251,22.334,9.251h25.462c9.611,0,17.43,7.819,17.43,17.43V495c0,2.762-2.239,5-5,5s-5-2.238-5-5V373.735
	c0-4.097-3.333-7.43-7.43-7.43h-25.462c-11.108,0-21.551-4.326-29.405-12.181l-36.818-36.818v37.108c0,2.762-2.239,5-5,5
	s-5-2.238-5-5v-47.108l-9.07-9.07c-5.154-5.154-7.993-12.008-7.993-19.297c0-7.579,4.315-14.169,11.261-17.2
	c1.893-0.826,3.848-1.317,5.802-1.507V215.55c0-2.762,2.239-5,5-5s5,2.238,5,5v46.532c1.592,0.797,3.097,1.832,4.466,3.103
	l8.855,8.217V155.575h-9.624c-2.039,0-3.698,1.659-3.698,3.698v13.047c0,2.762-2.239,5-5,5s-5-2.238-5-5v-13.047
	c0-7.554,6.145-13.698,13.698-13.698h9.624v-23.412c0-2.762,2.239-5,5-5h80.417c30.109,0,59.995,9.523,84.574,26.885
	c24.58-17.36,54.466-26.885,84.575-26.885h80.417c2.761,0,5,2.238,5,5v23.412h9.624c7.553,0,13.698,6.145,13.698,13.698v100.96
	c1.954,0.189,3.908,0.681,5.802,1.506c6.946,3.031,11.261,9.621,11.261,17.2C460.376,286.229,457.537,293.083,452.383,298.237z
	 M353.819,177.834l11.59-10.107c1.883-1.643,4.689-1.643,6.572,0l11.59,10.107v-50.671h-29.753V177.834z M409.992,282.681V127.163
	h-16.42v61.665c0,1.96-1.146,3.74-2.93,4.552c-0.663,0.301-1.368,0.448-2.069,0.448c-1.186,0-2.358-0.422-3.287-1.231l-16.59-14.468
	l-16.59,14.468c-1.478,1.288-3.572,1.594-5.356,0.783c-1.785-0.812-2.93-2.592-2.93-4.552v-61.665h-9.244
	c-28.377,0-56.524,9.102-79.575,25.634v20.536c0,2.762-2.239,5-5,5s-5-2.238-5-5v-20.536c-23.05-16.532-51.197-25.634-79.574-25.634
	H90.009V282.68l12.76,11.84c10.812,9.687,24.845,15.054,39.449,15.054h72.86c-18.748-11.697-31.256-32.5-31.256-56.179
	c0-36.49,29.688-66.178,66.178-66.178c36.491,0,66.179,29.688,66.179,66.178c0,23.679-12.508,44.482-31.257,56.179h72.86
	c14.604,0,28.637-5.367,39.513-15.112L409.992,282.681z M306.179,253.396c0-30.977-25.202-56.178-56.179-56.178
	c-30.977,0-56.178,25.201-56.178,56.178c0,30.978,25.202,56.179,56.178,56.179C280.977,309.574,306.179,284.373,306.179,253.396z
	 M428.847,265.185c1.369-1.271,2.874-2.305,4.466-3.102V159.273c0-2.039-1.659-3.698-3.698-3.698h-9.624v117.826L428.847,265.185z" class="color1c1d21 svgShape"/></svg>